# xmcd
#
# Track frame offsets: 
#        150
#        11987
#        21552
#        33692
#        43957
#        53689
#        63735
#        73075
#        84675
#        92710
#
# Disc length: 1374 seconds
#
# Revision: 0
# Processed by: cddbd v1.5.1PL2 Copyright (c) Steve Scherf et al.
# Submitted via: ExactAudioCopy v0.95a5
#
DISCID=95055c0a
DTITLE=Bill Monore - Nine Pound Hammer
DYEAR=2005
DGENRE=Bluegrass
TTITLE0=Nine Pound Hammer
TTITLE1=Shady Grove
TTITLE2=Can't You Hear Me Calling
TTITLE3=Shaenandoah Breakdown
TTITLE4=I Saw the Light
TTITLE5=Blue Moon of Kentucky
TTITLE6=Prison Song
TTITLE7=Bluegrass Breakdown
TTITLE8=Foot Prints in the Snow
TTITLE9=Uncle Penn
EXTD=
EXTT0=
EXTT1=
EXTT2=
EXTT3=
EXTT4=
EXTT5=
EXTT6=
EXTT7=
EXTT8=
EXTT9=
PLAYORDER=
